<svg version="1.1" id="Layer_1" xmlns="http://www.w3.org/2000/svg" xmlns:xlink="http://www.w3.org/1999/xlink" x="0px" y="0px"
	 width="100%" viewBox="0 0 51 58" enable-background="new 0 0 51 58" xml:space="preserve">
<path fill="#FEFEFE" opacity="1.000000" stroke="none" 
	d="
M28.000080,59.000000 
	C18.666727,59.000000 9.833394,59.000000 1.000046,59.000000 
	C1.000031,39.666687 1.000031,20.333374 1.000015,1.000046 
	C17.999979,1.000031 34.999958,1.000031 51.999954,1.000015 
	C51.999969,20.333313 51.999969,39.666626 51.999985,58.999969 
	C44.166698,59.000000 36.333397,59.000000 28.000080,59.000000 
M35.689533,45.388950 
	C45.187870,38.509678 46.193104,26.715933 37.845062,20.099491 
	C31.687740,15.219355 23.501333,15.367457 17.796398,20.462198 
	C12.033262,25.608915 10.836718,33.919907 14.936224,40.328438 
	C19.244268,47.062954 26.916153,49.141228 35.689533,45.388950 
z"/>
<path fill="#303030" opacity="1.000000" stroke="none" 
	d="
M35.366413,45.582138 
	C26.916153,49.141228 19.244268,47.062954 14.936224,40.328438 
	C10.836718,33.919907 12.033262,25.608915 17.796398,20.462198 
	C23.501333,15.367457 31.687740,15.219355 37.845062,20.099491 
	C46.193104,26.715933 45.187870,38.509678 35.366413,45.582138 
M31.027422,39.334183 
	C31.279160,37.478226 31.530897,35.622269 31.771881,33.845596 
	C28.920092,33.845596 26.594435,33.845596 23.508156,33.845596 
	C24.890404,37.802204 26.053354,41.131088 27.216307,44.459972 
	C27.722118,44.413292 28.227930,44.366615 28.733742,44.319935 
	C29.443016,42.915161 30.152290,41.510391 31.027422,39.334183 
M24.409840,27.736513 
	C25.352808,33.715195 29.182688,29.218050 32.789238,30.799431 
	C31.154318,26.170628 29.988758,22.870687 28.823200,19.570749 
	C28.190084,19.629053 27.556971,19.687357 26.923855,19.745661 
	C26.144178,22.151793 25.364504,24.557924 24.409840,27.736513 
M33.224766,22.628468 
	C33.887329,25.168264 34.549889,27.708059 35.250538,30.393860 
	C36.127464,30.459007 36.944656,30.593538 37.754490,30.558424 
	C38.513744,30.525501 39.265213,30.313072 40.020218,30.179615 
	C38.984158,24.541534 37.020615,22.267975 33.224766,22.628468 
M17.728407,33.423599 
	C17.211254,34.340408 16.021978,35.701332 16.286489,36.101646 
	C17.950699,38.620266 19.938103,40.925331 21.818678,43.300983 
	C22.324125,40.295704 22.068100,37.990715 21.264658,35.895660 
	C20.870487,34.867821 19.460556,34.229519 17.728407,33.423599 
M37.650383,39.981621 
	C38.596275,38.049442 39.542168,36.117264 40.886089,33.372021 
	C38.116299,33.514698 36.577553,33.593960 35.033905,33.673473 
	C34.354549,36.960930 33.767353,39.802425 32.997540,43.527603 
	C34.831917,42.196426 35.987011,41.358196 37.650383,39.981621 
M21.157305,21.775665 
	C19.148016,24.250765 17.138727,26.725863 15.129439,29.200962 
	C15.501030,29.563002 15.872621,29.925039 16.244211,30.287079 
	C17.778622,30.287079 19.313034,30.287079 21.219830,30.287079 
	C21.495979,27.353828 21.748661,24.669851 21.157305,21.775665 
z"/>
<path fill="#E5E5E5" opacity="1.000000" stroke="none" 
	d="
M30.944494,39.719902 
	C30.152290,41.510391 29.443016,42.915161 28.733742,44.319935 
	C28.227930,44.366615 27.722118,44.413292 27.216307,44.459972 
	C26.053354,41.131088 24.890404,37.802204 23.508156,33.845596 
	C26.594435,33.845596 28.920092,33.845596 31.771881,33.845596 
	C31.530897,35.622269 31.279160,37.478226 30.944494,39.719902 
z"/>
<path fill="#E8E8E8" opacity="1.000000" stroke="none" 
	d="
M24.497334,27.350285 
	C25.364504,24.557924 26.144178,22.151793 26.923855,19.745661 
	C27.556971,19.687357 28.190084,19.629053 28.823200,19.570749 
	C29.988758,22.870687 31.154318,26.170628 32.789238,30.799431 
	C29.182688,29.218050 25.352808,33.715195 24.497334,27.350285 
z"/>
<path fill="#E1E1E1" opacity="1.000000" stroke="none" 
	d="
M33.154991,22.255608 
	C37.020615,22.267975 38.984158,24.541534 40.020218,30.179615 
	C39.265213,30.313072 38.513744,30.525501 37.754490,30.558424 
	C36.944656,30.593538 36.127464,30.459007 35.250538,30.393860 
	C34.549889,27.708059 33.887329,25.168264 33.154991,22.255608 
z"/>
<path fill="#E1E1E1" opacity="1.000000" stroke="none" 
	d="
M18.119366,33.419266 
	C19.460556,34.229519 20.870487,34.867821 21.264658,35.895660 
	C22.068100,37.990715 22.324125,40.295704 21.818678,43.300983 
	C19.938103,40.925331 17.950699,38.620266 16.286489,36.101646 
	C16.021978,35.701332 17.211254,34.340408 18.119366,33.419266 
z"/>
<path fill="#E2E2E2" opacity="1.000000" stroke="none" 
	d="
M37.396244,40.250793 
	C35.987011,41.358196 34.831917,42.196426 32.997540,43.527603 
	C33.767353,39.802425 34.354549,36.960930 35.033905,33.673473 
	C36.577553,33.593960 38.116299,33.514698 40.886089,33.372021 
	C39.542168,36.117264 38.596275,38.049442 37.396244,40.250793 
z"/>
<path fill="#E2E2E2" opacity="1.000000" stroke="none" 
	d="
M21.579323,21.880772 
	C21.748661,24.669851 21.495979,27.353828 21.219830,30.287079 
	C19.313034,30.287079 17.778622,30.287079 16.244211,30.287079 
	C15.872621,29.925039 15.501030,29.563002 15.129439,29.200962 
	C17.138727,26.725863 19.148016,24.250765 21.579323,21.880772 
z"/>
</svg>